<svg xmlns="http://www.w3.org/2000/svg" xmlns:xlink="http://www.w3.org/1999/xlink" viewBox="0 0 66 57" fill="#fff" fill-rule="evenodd" stroke="#000" stroke-linecap="round" stroke-linejoin="round"><use xlink:href="#F" x=".5" y=".5"/><defs><linearGradient id="A" x1="48.34%" y1="1.78%" x2="48.34%" y2="100.00%"><stop offset="0%" stop-color="#f29100"/><stop offset="100%" stop-color="#ec670f"/></linearGradient><linearGradient id="B" x1="49.99%" y1="0.00%" x2="49.99%" y2="99.98%"><stop offset="0%" stop-color="#f29100"/><stop offset="100%" stop-color="#ec670f"/></linearGradient><linearGradient id="C" x1="50.00%" y1="0.00%" x2="50.00%" y2="100.00%"><stop offset="0%" stop-color="#f29100"/><stop offset="100%" stop-color="#ec670f"/></linearGradient><linearGradient id="D" x1="50.00%" y1="-0.00%" x2="50.00%" y2="100.00%"><stop offset="0%" stop-color="#f29100"/><stop offset="100%" stop-color="#ec670f"/></linearGradient><path id="E" d="M32.057 37.847l.009-.023c-.013-.059-.018-.077-.009.023z"/></defs><symbol id="F" overflow="visible"><g stroke="none" fill-rule="nonzero"><path d="M33.28 49.096c-.077-.55.076-1.098-.09-1.615-.142-.451-.464-.492-.681-.858-.563-.962-1.146-2.204-1.199-3.384-.049-1.057-.438-2.013-.491-3.061-.025-.506.034-1.027.016-1.528-.01-.244-.023-.455-.072-.719l-.075-.442.131-.328c-.058-.116 1.122-.075 1.474-.073l1.755.067c1.217.06 2.326.045 3.511-.138 2.641-.408 3.855-1.486 4.477-1.935 2.425-1.748 3.536-4.607 3.536-4.607.4-.889.398-2.486 1.256-3.199 1.011-.843 2.708-.782 3.869-1.299.679-.3 1.169-.466 1.863-.322.515.107 1.442.704 1.655-.133-.172-.111-.24-.314-.331-.426.957-.095.018-2.314-.36-2.758-.585-.684-1.56-.997-2.598-1.273-1.233-.327-2.351-.704-3.511-.476-2.026.397-1.875-.763-3.069-.763-1.433 0-3.983.07-4.424 1.464-.205.651-.417.678-.772 1.177-.304.428.053.805-.1 1.293-.158.501-.389 2.267-.631 2.884-.409 1.043-.896 2.345-1.795 2.345-1.26.155-2.251.199-3.274-.172l-2.157-.789c-2.354-.991-2.74-2.075-2.74-2.075-.252-.418-.918-1.09-1.167-1.969-.274-.967-.736-1.778-.923-2.281-.193-.522-.657-1.353-1.021-2.26-.466-1.16-1.121-2.019-1.601-2.447-.733-.657-1.409-1.665-2.897-1.371-.266.053-1.232.097-1.973.717-.502.425-.657 1.291-1.126 2.024-.269.424-.741 1.639-1.175 2.653-.3.703-.441 1.229-.765 1.488-.254.203-.568.464-.949.322-.232-.089-.489-.239-.743-.438-.348-.269-1.126-1.6-1.607-2.582-.416-.852-1.305-2.127-1.819-2.817-.74-.993-1.174-1.245-2.267-1.245-2.345 0-2.523 1.313-3.555 3.223-.453.839-.618 2.17-1.528 3.214-.52.6-2.179 3.059-3.332 3.473v-.012L0 25.658l.003 17.41a5.83 5.83 0 0 1 .244-.643c.446-.951 1.481-1.832 2.057-2.809.309-.532.669-1.053.877-1.611.178-.481.266-1.198.523-1.615.315-.512.809-.685 1.317-.768.794-.131 1.469 1.142 2.486 1.611.433.199 2.428.905 3.027 1.05l3.081.635c.536.108 1.049.171 1.6.227.495.05 2.351.111 2.465.245-.943.481-1.496 1.831-1.85 2.786l-1.073 3.077c-.495 1.076-1.531 1.523-1.407 2.777.048.5.139 1.024.055 1.575-.089.58-.323 1.032-.494 1.599-.219.74-.479 3.131-.817 3.834l2.067-.26c.225-.536.433-2.798.502-3.013.386-1.134.898-2.068 1.686-2.945.768-.85.728-1.956 1.176-2.952.486-1.082 1.139-1.948 1.755-2.965 1.113-1.84 1.848-4.162 4.216-4.639.253-.052 1.703.993 2.346 1.615.737.708 1.542 1.528 2.026 2.505.937 1.893 1.732 4.634 2.033 6.147.173.868.31.92.898 1.608.271.315.81 1.3.987 1.678.186.404.47 1.322.696 1.791.133.279.478 1.136.729 1.877l1.928-.06c.007.016.039-.005.05.011l-.019-.048c-.961-1.928-1.575-4.158-1.893-6.294z"/><use xlink:href="#E" fill="#484444"/><use xlink:href="#E" fill="url(#A)"/><path d="M32.486 53.609c-.226-.469-.509-1.392-.696-1.791-.178-.378-.717-1.362-.987-1.678-.588-.688-.725-.74-.898-1.608-.3-1.508-1.096-4.254-2.033-6.147-.484-.976-1.289-1.797-2.026-2.505-.643-.621-2.093-1.667-2.346-1.615-2.368.473-3.102 2.795-4.216 4.639-.616 1.017-1.269 1.883-1.755 2.965-.448.995-.409 2.098-1.176 2.952-.787.877-1.299 1.811-1.685 2.945-.077.215-.281 2.477-.503 3.013l3.519-.247c3.279.223 2.332 1.481 7.451 1.206l8.082-.25-.729-1.877z" fill="url(#B)"/><path d="M55.938 0H8.067C3.615.001.006 3.611.005 8.063v17.592c1.154-.418 2.813-2.872 3.332-3.468.91-1.044 1.075-2.375 1.528-3.214 1.032-1.91 1.209-3.223 3.555-3.223 1.093 0 1.527.252 2.267 1.245.514.69 1.403 1.965 1.819 2.817.48.983 1.263 2.314 1.607 2.582.255.2.507.349.743.438.38.143.695-.119.949-.322.325-.259.465-.786.765-1.488.434-1.014.906-2.229 1.175-2.653.465-.733.624-1.603 1.126-2.024.741-.621 1.707-.665 1.973-.717 1.488-.294 2.165.717 2.897 1.371.479.428 1.135 1.291 1.6 2.447.363.903.827 1.739 1.021 2.26.187.503.649 1.314.923 2.281.249.878.914 1.551 1.167 1.969 0 0 .387 1.084 2.74 2.075.51.215 1.542.564 2.157.789 1.023.371 2.013.323 3.274.172.899 0 1.386-1.302 1.795-2.345.242-.616.473-2.382.631-2.884.153-.488-.205-.865.1-1.293.356-.503.567-.526.772-1.177.441-1.393 2.991-1.464 4.424-1.464 1.198 0 1.043 1.16 3.069.763 1.161-.232 2.279.15 3.511.476 1.038.275 2.013.589 2.598 1.273.379.443 1.317 2.663.36 2.758.092.116.159.315.331.426-.213.837-1.14.241-1.654.133-.694-.144-1.184.022-1.863.322-1.161.517-2.858.456-3.869 1.299-.858.714-.856 2.307-1.256 3.199 0 0-1.111 2.858-3.536 4.607-.621.448-1.836 1.527-4.477 1.935-1.185.183-2.294.198-3.511.138l-1.755-.067c-.348-.003-1.532-.04-1.474.073l-.131.328c.02.108.063.377.075.442.048.265.062.476.072.719.018.501-.041 1.022-.016 1.528.053 1.044.442 2.003.491 3.061.054 1.177.636 2.423 1.199 3.384.214.366.539.408.681.858.166.516.009 1.064.09 1.615.317 2.134.928 4.365 1.893 6.292a.46.46 0 0 0 .023.047c1.187-.199 2.376-.625 3.918-.853 2.828-.419 6.76-.203 9.286-.44 6.391-.601 9.86 2.621 15.601 1.301V8.063C64 3.611 60.392 0 55.938 0zM32.057 37.847c-.009-.097-.005-.083.009-.023z" fill="url(#C)"/><path d="M14.759 45.251c.446-.973.704-2.082 1.073-3.077.354-.955.907-2.305 1.85-2.786-.115-.134-1.97-.196-2.465-.245l-1.6-.227-3.081-.635c-.599-.145-2.59-.851-3.027-1.05-1.017-.468-1.691-1.742-2.486-1.611-.507.083-1.005.257-1.317.768-.258.417-.345 1.134-.523 1.615-.207.558-.565 1.079-.877 1.611-.575.976-1.61 1.858-2.057 2.809a6.05 6.05 0 0 0-.243.642v10.868l1.674.361c4.496 1.2 5.594 1.301 10.004.797l.414-.055c.337-.704.598-3.094.817-3.835.17-.568.405-1.02.494-1.599.084-.55-.008-1.075-.055-1.575-.122-1.253.914-1.701 1.409-2.777z" fill="url(#D)"/></g></symbol></svg>